<!-- <?xml version="1.0" standalone="no"?><!DOCTYPE svg PUBLIC "-//W3C//DTD SVG 1.1//EN" "http://www.w3.org/Graphics/SVG/1.1/DTD/svg11.dtd"><svg t="1728033056403" class="icon" viewBox="0 0 1024 1024" version="1.1" xmlns="http://www.w3.org/2000/svg" p-id="4248" xmlns:xlink="http://www.w3.org/1999/xlink" width="200" height="200"><path d="M1024 590.432l-512-397.44-512 397.44 0-162.048 512-397.44 512 397.44zM896 576l0 384-256 0 0-256-256 0 0 256-256 0 0-384 384-288z" fill="#444444" p-id="4249"></path></svg> -->
<svg class="icon" viewBox="0 0 1024 1024" xmlns="http://www.w3.org/2000/svg" xmlns:xlink="http://www.w3.org/1999/xlink" width="24" height="24">
    <path d="M1024 590.432l-512-397.44-512 397.44 0-162.048 512-397.44 512 397.44zM896 576l0 384-256 0 0-256-256 0 0 256-256 0 0-384 384-288z" fill="#444444"></path>
  </svg>
  